<svg width="450" height="36" viewBox="0 0 450 36" fill="none" xmlns="http://www.w3.org/2000/svg">
<path d="M41.8168 12.1998V10.5398H45.5768V24.9998H43.7368V12.1998H41.8168ZM48.703 17.6198C48.703 15.3264 49.0763 13.5398 49.823 12.2598C50.5697 10.9664 51.8763 10.3198 53.743 10.3198C55.5963 10.3198 56.8963 10.9664 57.643 12.2598C58.3897 13.5398 58.763 15.3264 58.763 17.6198C58.763 19.9531 58.3897 21.7664 57.643 23.0598C56.8963 24.3531 55.5963 24.9998 53.743 24.9998C51.8763 24.9998 50.5697 24.3531 49.823 23.0598C49.0763 21.7664 48.703 19.9531 48.703 17.6198ZM56.963 17.6198C56.963 16.4598 56.883 15.4798 56.723 14.6798C56.5763 13.8664 56.263 13.2131 55.783 12.7198C55.3163 12.2264 54.6363 11.9798 53.743 11.9798C52.8363 11.9798 52.143 12.2264 51.663 12.7198C51.1963 13.2131 50.883 13.8664 50.723 14.6798C50.5763 15.4798 50.503 16.4598 50.503 17.6198C50.503 18.8198 50.5763 19.8264 50.723 20.6398C50.883 21.4531 51.1963 22.1064 51.663 22.5998C52.143 23.0931 52.8363 23.3398 53.743 23.3398C54.6363 23.3398 55.3163 23.0931 55.783 22.5998C56.263 22.1064 56.5763 21.4531 56.723 20.6398C56.883 19.8264 56.963 18.8198 56.963 17.6198ZM61.2616 17.6198C61.2616 15.3264 61.6349 13.5398 62.3816 12.2598C63.1283 10.9664 64.4349 10.3198 66.3016 10.3198C68.1549 10.3198 69.4549 10.9664 70.2016 12.2598C70.9483 13.5398 71.3216 15.3264 71.3216 17.6198C71.3216 19.9531 70.9483 21.7664 70.2016 23.0598C69.4549 24.3531 68.1549 24.9998 66.3016 24.9998C64.4349 24.9998 63.1283 24.3531 62.3816 23.0598C61.6349 21.7664 61.2616 19.9531 61.2616 17.6198ZM69.5216 17.6198C69.5216 16.4598 69.4416 15.4798 69.2816 14.6798C69.1349 13.8664 68.8216 13.2131 68.3416 12.7198C67.8749 12.2264 67.1949 11.9798 66.3016 11.9798C65.3949 11.9798 64.7016 12.2264 64.2216 12.7198C63.7549 13.2131 63.4416 13.8664 63.2816 14.6798C63.1349 15.4798 63.0616 16.4598 63.0616 17.6198C63.0616 18.8198 63.1349 19.8264 63.2816 20.6398C63.4416 21.4531 63.7549 22.1064 64.2216 22.5998C64.7016 23.0931 65.3949 23.3398 66.3016 23.3398C67.1949 23.3398 67.8749 23.0931 68.3416 22.5998C68.8216 22.1064 69.1349 21.4531 69.2816 20.6398C69.4416 19.8264 69.5216 18.8198 69.5216 17.6198ZM84.5202 18.4598H80.2602V22.7798H78.5602V18.4598H74.3202V16.9198H78.5602V12.5798H80.2602V16.9198H84.5202V18.4598ZM107.245 11.1598V24.9998H105.425V14.6798L100.825 24.9998H99.5446L94.9246 14.6598V24.9998H93.1046V11.1598H95.0646L100.185 22.5998L105.305 11.1598H107.245ZM115.111 25.1798C114.084 25.1798 113.151 24.9464 112.311 24.4798C111.484 24.0131 110.831 23.3531 110.351 22.4998C109.884 21.6331 109.651 20.6331 109.651 19.4998C109.651 18.3798 109.891 17.3931 110.371 16.5398C110.864 15.6731 111.531 15.0131 112.371 14.5598C113.211 14.0931 114.151 13.8598 115.191 13.8598C116.231 13.8598 117.171 14.0931 118.011 14.5598C118.851 15.0131 119.511 15.6664 119.991 16.5198C120.484 17.3731 120.731 18.3664 120.731 19.4998C120.731 20.6331 120.478 21.6331 119.971 22.4998C119.478 23.3531 118.804 24.0131 117.951 24.4798C117.098 24.9464 116.151 25.1798 115.111 25.1798ZM115.111 23.5798C115.764 23.5798 116.378 23.4264 116.951 23.1198C117.524 22.8131 117.984 22.3531 118.331 21.7398C118.691 21.1264 118.871 20.3798 118.871 19.4998C118.871 18.6198 118.698 17.8731 118.351 17.2598C118.004 16.6464 117.551 16.1931 116.991 15.8998C116.431 15.5931 115.824 15.4398 115.171 15.4398C114.504 15.4398 113.891 15.5931 113.331 15.8998C112.784 16.1931 112.344 16.6464 112.011 17.2598C111.678 17.8731 111.511 18.6198 111.511 19.4998C111.511 20.3931 111.671 21.1464 111.991 21.7598C112.324 22.3731 112.764 22.8331 113.311 23.1398C113.858 23.4331 114.458 23.5798 115.111 23.5798ZM124.944 16.0798C125.317 15.4264 125.864 14.8931 126.584 14.4798C127.304 14.0664 128.124 13.8598 129.044 13.8598C130.031 13.8598 130.917 14.0931 131.704 14.5598C132.491 15.0264 133.111 15.6864 133.564 16.5398C134.017 17.3798 134.244 18.3598 134.244 19.4798C134.244 20.5864 134.017 21.5731 133.564 22.4398C133.111 23.3064 132.484 23.9798 131.684 24.4598C130.897 24.9398 130.017 25.1798 129.044 25.1798C128.097 25.1798 127.264 24.9731 126.544 24.5598C125.837 24.1464 125.304 23.6198 124.944 22.9798V24.9998H123.124V10.1998H124.944V16.0798ZM132.384 19.4798C132.384 18.6531 132.217 17.9331 131.884 17.3198C131.551 16.7064 131.097 16.2398 130.524 15.9198C129.964 15.5998 129.344 15.4398 128.664 15.4398C127.997 15.4398 127.377 15.6064 126.804 15.9398C126.244 16.2598 125.791 16.7331 125.444 17.3598C125.111 17.9731 124.944 18.6864 124.944 19.4998C124.944 20.3264 125.111 21.0531 125.444 21.6798C125.791 22.2931 126.244 22.7664 126.804 23.0998C127.377 23.4198 127.997 23.5798 128.664 23.5798C129.344 23.5798 129.964 23.4198 130.524 23.0998C131.097 22.7664 131.551 22.2931 131.884 21.6798C132.217 21.0531 132.384 20.3198 132.384 19.4798ZM137.58 12.2598C137.233 12.2598 136.94 12.1398 136.7 11.8998C136.46 11.6598 136.34 11.3664 136.34 11.0198C136.34 10.6731 136.46 10.3798 136.7 10.1398C136.94 9.89976 137.233 9.77976 137.58 9.77976C137.913 9.77976 138.193 9.89976 138.42 10.1398C138.66 10.3798 138.78 10.6731 138.78 11.0198C138.78 11.3664 138.66 11.6598 138.42 11.8998C138.193 12.1398 137.913 12.2598 137.58 12.2598ZM138.46 14.0398V24.9998H136.64V14.0398H138.46ZM143.382 10.1998V24.9998H141.562V10.1998H143.382Z" fill="black"/>
<path d="M25.5001 16.4998H28.5001C29.2958 16.4998 30.0588 16.8158 30.6214 17.3784C31.1841 17.941 31.5001 18.7041 31.5001 19.4998V22.4998C31.5001 22.8976 31.3421 23.2791 31.0608 23.5604C30.7795 23.8417 30.3979 23.9998 30.0001 23.9998H27.7501M25.5001 16.4998H15.7501M25.5001 16.4998L21.8746 10.4563C21.6081 10.012 21.231 9.64439 20.7802 9.38915C20.3294 9.1339 19.8202 8.99975 19.3021 8.99976H15.7501M27.7501 23.9998C27.7501 24.7954 27.4341 25.5585 26.8714 26.1211C26.3088 26.6837 25.5458 26.9998 24.7501 26.9998C23.9545 26.9998 23.1914 26.6837 22.6288 26.1211C22.0662 25.5585 21.7501 24.7954 21.7501 23.9998M27.7501 23.9998C27.7501 23.2041 27.4341 22.441 26.8714 21.8784C26.3088 21.3158 25.5458 20.9998 24.7501 20.9998C23.9545 20.9998 23.1914 21.3158 22.6288 21.8784C22.0662 22.441 21.7501 23.2041 21.7501 23.9998M15.7501 16.4998V8.99976M15.7501 16.4998H7.50012M15.7501 8.99976H11.4601C10.7663 8.99948 10.0939 9.23968 9.55729 9.67947C9.02069 10.1192 8.65311 10.7314 8.51712 11.4118L7.50012 16.4998M7.50012 16.4998C6.70447 16.4998 5.94141 16.8158 5.3788 17.3784C4.81619 17.941 4.50012 18.7041 4.50012 19.4998V22.4998C4.50012 22.8976 4.65816 23.2791 4.93946 23.5604C5.22077 23.8417 5.6023 23.9998 6.00012 23.9998H8.25012M8.25012 23.9998C8.25012 24.7954 8.56619 25.5585 9.1288 26.1211C9.69141 26.6837 10.4545 26.9998 11.2501 26.9998C12.0458 26.9998 12.8088 26.6837 13.3714 26.1211C13.9341 25.5585 14.2501 24.7954 14.2501 23.9998M8.25012 23.9998C8.25012 23.2041 8.56619 22.441 9.1288 21.8784C9.69141 21.3158 10.4545 20.9998 11.2501 20.9998C12.0458 20.9998 12.8088 21.3158 13.3714 21.8784C13.9341 22.441 14.2501 23.2041 14.2501 23.9998M14.2501 23.9998H21.7501" stroke="black" stroke-width="2" stroke-linecap="round" stroke-linejoin="round"/>
<path d="M215.862 12.1198H208.842V16.6798C209.149 16.2531 209.602 15.9064 210.202 15.6398C210.802 15.3598 211.449 15.2198 212.142 15.2198C213.249 15.2198 214.149 15.4531 214.842 15.9198C215.536 16.3731 216.029 16.9664 216.322 17.6998C216.629 18.4198 216.782 19.1864 216.782 19.9998C216.782 20.9598 216.602 21.8198 216.242 22.5798C215.882 23.3398 215.329 23.9398 214.582 24.3798C213.849 24.8198 212.936 25.0398 211.842 25.0398C210.442 25.0398 209.309 24.6798 208.442 23.9598C207.576 23.2398 207.049 22.2798 206.862 21.0798H208.642C208.816 21.8398 209.182 22.4331 209.742 22.8598C210.302 23.2864 211.009 23.4998 211.862 23.4998C212.916 23.4998 213.709 23.1864 214.242 22.5598C214.776 21.9198 215.042 21.0798 215.042 20.0398C215.042 18.9998 214.776 18.1998 214.242 17.6398C213.709 17.0664 212.922 16.7798 211.882 16.7798C211.176 16.7798 210.556 16.9531 210.022 17.2998C209.502 17.6331 209.122 18.0931 208.882 18.6798H207.162V10.5198H215.862V12.1198ZM224.153 18.0198C224.153 16.6598 224.46 15.4398 225.073 14.3598C225.686 13.2664 226.52 12.4131 227.573 11.7998C228.64 11.1864 229.82 10.8798 231.113 10.8798C232.633 10.8798 233.96 11.2464 235.093 11.9798C236.226 12.7131 237.053 13.7531 237.573 15.0998H235.393C235.006 14.2598 234.446 13.6131 233.713 13.1598C232.993 12.7064 232.126 12.4798 231.113 12.4798C230.14 12.4798 229.266 12.7064 228.493 13.1598C227.72 13.6131 227.113 14.2598 226.673 15.0998C226.233 15.9264 226.013 16.8998 226.013 18.0198C226.013 19.1264 226.233 20.0998 226.673 20.9398C227.113 21.7664 227.72 22.4064 228.493 22.8598C229.266 23.3131 230.14 23.5398 231.113 23.5398C232.126 23.5398 232.993 23.3198 233.713 22.8798C234.446 22.4264 235.006 21.7798 235.393 20.9398H237.573C237.053 22.2731 236.226 23.3064 235.093 24.0398C233.96 24.7598 232.633 25.1198 231.113 25.1198C229.82 25.1198 228.64 24.8198 227.573 24.2198C226.52 23.6064 225.686 22.7598 225.073 21.6798C224.46 20.5998 224.153 19.3798 224.153 18.0198ZM239.602 19.4798C239.602 18.3598 239.829 17.3798 240.282 16.5398C240.736 15.6864 241.356 15.0264 242.142 14.5598C242.942 14.0931 243.829 13.8598 244.802 13.8598C245.762 13.8598 246.596 14.0664 247.302 14.4798C248.009 14.8931 248.536 15.4131 248.882 16.0398V14.0398H250.722V24.9998H248.882V22.9598C248.522 23.5998 247.982 24.1331 247.262 24.5598C246.556 24.9731 245.729 25.1798 244.782 25.1798C243.809 25.1798 242.929 24.9398 242.142 24.4598C241.356 23.9798 240.736 23.3064 240.282 22.4398C239.829 21.5731 239.602 20.5864 239.602 19.4798ZM248.882 19.4998C248.882 18.6731 248.716 17.9531 248.382 17.3398C248.049 16.7264 247.596 16.2598 247.022 15.9398C246.462 15.6064 245.842 15.4398 245.162 15.4398C244.482 15.4398 243.862 15.5998 243.302 15.9198C242.742 16.2398 242.296 16.7064 241.962 17.3198C241.629 17.9331 241.462 18.6531 241.462 19.4798C241.462 20.3198 241.629 21.0531 241.962 21.6798C242.296 22.2931 242.742 22.7664 243.302 23.0998C243.862 23.4198 244.482 23.5798 245.162 23.5798C245.842 23.5798 246.462 23.4198 247.022 23.0998C247.596 22.7664 248.049 22.2931 248.382 21.6798C248.716 21.0531 248.882 20.3264 248.882 19.4998ZM255.618 16.0798C255.991 15.4264 256.538 14.8931 257.258 14.4798C257.978 14.0664 258.798 13.8598 259.718 13.8598C260.705 13.8598 261.591 14.0931 262.378 14.5598C263.165 15.0264 263.785 15.6864 264.238 16.5398C264.691 17.3798 264.918 18.3598 264.918 19.4798C264.918 20.5864 264.691 21.5731 264.238 22.4398C263.785 23.3064 263.158 23.9798 262.358 24.4598C261.571 24.9398 260.691 25.1798 259.718 25.1798C258.771 25.1798 257.938 24.9731 257.218 24.5598C256.511 24.1464 255.978 23.6198 255.618 22.9798V24.9998H253.798V10.1998H255.618V16.0798ZM263.058 19.4798C263.058 18.6531 262.891 17.9331 262.558 17.3198C262.225 16.7064 261.771 16.2398 261.198 15.9198C260.638 15.5998 260.018 15.4398 259.338 15.4398C258.671 15.4398 258.051 15.6064 257.478 15.9398C256.918 16.2598 256.465 16.7331 256.118 17.3598C255.785 17.9731 255.618 18.6864 255.618 19.4998C255.618 20.3264 255.785 21.0531 256.118 21.6798C256.465 22.2931 256.918 22.7664 257.478 23.0998C258.051 23.4198 258.671 23.5798 259.338 23.5798C260.018 23.5798 260.638 23.4198 261.198 23.0998C261.771 22.7664 262.225 22.2931 262.558 21.6798C262.891 21.0531 263.058 20.3198 263.058 19.4798ZM266.634 19.4798C266.634 18.3598 266.86 17.3798 267.314 16.5398C267.767 15.6864 268.387 15.0264 269.174 14.5598C269.974 14.0931 270.86 13.8598 271.834 13.8598C272.794 13.8598 273.627 14.0664 274.334 14.4798C275.04 14.8931 275.567 15.4131 275.914 16.0398V14.0398H277.754V24.9998H275.914V22.9598C275.554 23.5998 275.014 24.1331 274.294 24.5598C273.587 24.9731 272.76 25.1798 271.814 25.1798C270.84 25.1798 269.96 24.9398 269.174 24.4598C268.387 23.9798 267.767 23.3064 267.314 22.4398C266.86 21.5731 266.634 20.5864 266.634 19.4798ZM275.914 19.4998C275.914 18.6731 275.747 17.9531 275.414 17.3398C275.08 16.7264 274.627 16.2598 274.054 15.9398C273.494 15.6064 272.874 15.4398 272.194 15.4398C271.514 15.4398 270.894 15.5998 270.334 15.9198C269.774 16.2398 269.327 16.7064 268.994 17.3198C268.66 17.9331 268.494 18.6531 268.494 19.4798C268.494 20.3198 268.66 21.0531 268.994 21.6798C269.327 22.2931 269.774 22.7664 270.334 23.0998C270.894 23.4198 271.514 23.5798 272.194 23.5798C272.874 23.5798 273.494 23.4198 274.054 23.0998C274.627 22.7664 275.08 22.2931 275.414 21.6798C275.747 21.0531 275.914 20.3264 275.914 19.4998ZM286.169 13.8398C287.503 13.8398 288.583 14.2464 289.409 15.0598C290.236 15.8598 290.649 17.0198 290.649 18.5398V24.9998H288.849V18.7998C288.849 17.7064 288.576 16.8731 288.029 16.2998C287.483 15.7131 286.736 15.4198 285.789 15.4198C284.829 15.4198 284.063 15.7198 283.489 16.3198C282.929 16.9198 282.649 17.7931 282.649 18.9398V24.9998H280.829V14.0398H282.649V15.5998C283.009 15.0398 283.496 14.6064 284.109 14.2998C284.736 13.9931 285.423 13.8398 286.169 13.8398ZM298.142 13.8598C299.089 13.8598 299.915 14.0664 300.622 14.4798C301.342 14.8931 301.875 15.4131 302.222 16.0398V14.0398H304.062V25.2398C304.062 26.2398 303.849 27.1264 303.422 27.8998C302.995 28.6864 302.382 29.2998 301.582 29.7398C300.795 30.1798 299.875 30.3998 298.822 30.3998C297.382 30.3998 296.182 30.0598 295.222 29.3798C294.262 28.6998 293.695 27.7731 293.522 26.5998H295.322C295.522 27.2664 295.935 27.7998 296.562 28.1998C297.189 28.6131 297.942 28.8198 298.822 28.8198C299.822 28.8198 300.635 28.5064 301.262 27.8798C301.902 27.2531 302.222 26.3731 302.222 25.2398V22.9398C301.862 23.5798 301.329 24.1131 300.622 24.5398C299.915 24.9664 299.089 25.1798 298.142 25.1798C297.169 25.1798 296.282 24.9398 295.482 24.4598C294.695 23.9798 294.075 23.3064 293.622 22.4398C293.169 21.5731 292.942 20.5864 292.942 19.4798C292.942 18.3598 293.169 17.3798 293.622 16.5398C294.075 15.6864 294.695 15.0264 295.482 14.5598C296.282 14.0931 297.169 13.8598 298.142 13.8598ZM302.222 19.4998C302.222 18.6731 302.055 17.9531 301.722 17.3398C301.389 16.7264 300.935 16.2598 300.362 15.9398C299.802 15.6064 299.182 15.4398 298.502 15.4398C297.822 15.4398 297.202 15.5998 296.642 15.9198C296.082 16.2398 295.635 16.7064 295.302 17.3198C294.969 17.9331 294.802 18.6531 294.802 19.4798C294.802 20.3198 294.969 21.0531 295.302 21.6798C295.635 22.2931 296.082 22.7664 296.642 23.0998C297.202 23.4198 297.822 23.5798 298.502 23.5798C299.182 23.5798 299.802 23.4198 300.362 23.0998C300.935 22.7664 301.389 22.2931 301.722 21.6798C302.055 21.0531 302.222 20.3264 302.222 19.4998Z" fill="black"/>
<g clip-path="url(#clip0_329_871)">
<path d="M184.602 2.2388L195.889 12.4999H191.76L183.667 5.14297L175.333 12.7194V26.3888H182.278V29.1666H173.945C173.576 29.1666 173.223 29.0203 172.962 28.7598C172.702 28.4993 172.556 28.146 172.556 27.7777V15.2777H168.389L182.732 2.2388C182.988 2.00614 183.321 1.8772 183.667 1.8772C184.013 1.8772 184.346 2.00614 184.602 2.2388ZM186.445 15.2777H198.945V24.9999H186.445V15.2777ZM189.222 18.0555V22.2221H196.167V18.0555H189.222ZM200.333 29.1666H185.056V26.3888H200.333V29.1666Z" fill="black"/>
</g>
<path d="M365.432 23.5398C367.126 22.1798 368.452 21.0664 369.412 20.1998C370.372 19.3198 371.179 18.4064 371.832 17.4598C372.499 16.4998 372.832 15.5598 372.832 14.6398C372.832 13.7731 372.619 13.0931 372.192 12.5998C371.779 12.0931 371.106 11.8398 370.172 11.8398C369.266 11.8398 368.559 12.1264 368.052 12.6998C367.559 13.2598 367.292 14.0131 367.252 14.9598H365.492C365.546 13.4664 365.999 12.3131 366.852 11.4998C367.706 10.6864 368.806 10.2798 370.152 10.2798C371.526 10.2798 372.612 10.6598 373.412 11.4198C374.226 12.1798 374.632 13.2264 374.632 14.5598C374.632 15.6664 374.299 16.7464 373.632 17.7998C372.979 18.8398 372.232 19.7598 371.392 20.5598C370.552 21.3464 369.479 22.2664 368.172 23.3198H375.052V24.8398H365.432V23.5398ZM377.156 17.6198C377.156 15.3264 377.529 13.5398 378.276 12.2598C379.023 10.9664 380.329 10.3198 382.196 10.3198C384.049 10.3198 385.349 10.9664 386.096 12.2598C386.843 13.5398 387.216 15.3264 387.216 17.6198C387.216 19.9531 386.843 21.7664 386.096 23.0598C385.349 24.3531 384.049 24.9998 382.196 24.9998C380.329 24.9998 379.023 24.3531 378.276 23.0598C377.529 21.7664 377.156 19.9531 377.156 17.6198ZM385.416 17.6198C385.416 16.4598 385.336 15.4798 385.176 14.6798C385.029 13.8664 384.716 13.2131 384.236 12.7198C383.769 12.2264 383.089 11.9798 382.196 11.9798C381.289 11.9798 380.596 12.2264 380.116 12.7198C379.649 13.2131 379.336 13.8664 379.176 14.6798C379.029 15.4798 378.956 16.4598 378.956 17.6198C378.956 18.8198 379.029 19.8264 379.176 20.6398C379.336 21.4531 379.649 22.1064 380.116 22.5998C380.596 23.0931 381.289 23.3398 382.196 23.3398C383.089 23.3398 383.769 23.0931 384.236 22.5998C384.716 22.1064 385.029 21.4531 385.176 20.6398C385.336 19.8264 385.416 18.8198 385.416 17.6198ZM397.575 24.9998L391.835 18.6398V24.9998H390.015V11.0598H391.835V17.5198L397.595 11.0598H399.895L393.575 18.0398L399.955 24.9998H397.575ZM409.099 11.0598V19.8798C409.099 21.1198 409.399 22.0398 409.999 22.6398C410.613 23.2398 411.459 23.5398 412.539 23.5398C413.606 23.5398 414.439 23.2398 415.039 22.6398C415.653 22.0398 415.959 21.1198 415.959 19.8798V11.0598H417.779V19.8598C417.779 21.0198 417.546 21.9998 417.079 22.7998C416.613 23.5864 415.979 24.1731 415.179 24.5598C414.393 24.9464 413.506 25.1398 412.519 25.1398C411.533 25.1398 410.639 24.9464 409.839 24.5598C409.053 24.1731 408.426 23.5864 407.959 22.7998C407.506 21.9998 407.279 21.0198 407.279 19.8598V11.0598H409.099ZM424.696 25.1798C423.856 25.1798 423.102 25.0398 422.436 24.7598C421.769 24.4664 421.242 24.0664 420.856 23.5598C420.469 23.0398 420.256 22.4464 420.216 21.7798H422.096C422.149 22.3264 422.402 22.7731 422.856 23.1198C423.322 23.4664 423.929 23.6398 424.676 23.6398C425.369 23.6398 425.916 23.4864 426.316 23.1798C426.716 22.8731 426.916 22.4864 426.916 22.0198C426.916 21.5398 426.702 21.1864 426.276 20.9598C425.849 20.7198 425.189 20.4864 424.296 20.2598C423.482 20.0464 422.816 19.8331 422.296 19.6198C421.789 19.3931 421.349 19.0664 420.976 18.6398C420.616 18.1998 420.436 17.6264 420.436 16.9198C420.436 16.3598 420.602 15.8464 420.936 15.3798C421.269 14.9131 421.742 14.5464 422.356 14.2798C422.969 13.9998 423.669 13.8598 424.456 13.8598C425.669 13.8598 426.649 14.1664 427.396 14.7798C428.142 15.3931 428.542 16.2331 428.596 17.2998H426.776C426.736 16.7264 426.502 16.2664 426.076 15.9198C425.662 15.5731 425.102 15.3998 424.396 15.3998C423.742 15.3998 423.222 15.5398 422.836 15.8198C422.449 16.0998 422.256 16.4664 422.256 16.9198C422.256 17.2798 422.369 17.5798 422.596 17.8198C422.836 18.0464 423.129 18.2331 423.476 18.3798C423.836 18.5131 424.329 18.6664 424.956 18.8398C425.742 19.0531 426.382 19.2664 426.876 19.4798C427.369 19.6798 427.789 19.9864 428.136 20.3998C428.496 20.8131 428.682 21.3531 428.696 22.0198C428.696 22.6198 428.529 23.1598 428.196 23.6398C427.862 24.1198 427.389 24.4998 426.776 24.7798C426.176 25.0464 425.482 25.1798 424.696 25.1798ZM441.265 19.0998C441.265 19.4464 441.245 19.8131 441.205 20.1998H432.445C432.511 21.2798 432.878 22.1264 433.545 22.7398C434.225 23.3398 435.045 23.6398 436.005 23.6398C436.791 23.6398 437.445 23.4598 437.965 23.0998C438.498 22.7264 438.871 22.2331 439.085 21.6198H441.045C440.751 22.6731 440.165 23.5331 439.285 24.1998C438.405 24.8531 437.311 25.1798 436.005 25.1798C434.965 25.1798 434.031 24.9464 433.205 24.4798C432.391 24.0131 431.751 23.3531 431.285 22.4998C430.818 21.6331 430.585 20.6331 430.585 19.4998C430.585 18.3664 430.811 17.3731 431.265 16.5198C431.718 15.6664 432.351 15.0131 433.165 14.5598C433.991 14.0931 434.938 13.8598 436.005 13.8598C437.045 13.8598 437.965 14.0864 438.765 14.5398C439.565 14.9931 440.178 15.6198 440.605 16.4198C441.045 17.2064 441.265 18.0998 441.265 19.0998ZM439.385 18.7198C439.385 18.0264 439.231 17.4331 438.925 16.9398C438.618 16.4331 438.198 16.0531 437.665 15.7998C437.145 15.5331 436.565 15.3998 435.925 15.3998C435.005 15.3998 434.218 15.6931 433.565 16.2798C432.925 16.8664 432.558 17.6798 432.465 18.7198H439.385ZM445.487 15.8198C445.807 15.1931 446.26 14.7064 446.847 14.3598C447.447 14.0131 448.174 13.8398 449.027 13.8398V15.7198H448.547C446.507 15.7198 445.487 16.8264 445.487 19.0398V24.9998H443.667V14.0398H445.487V15.8198Z" fill="black"/>
<path d="M349.417 18.8331C352.408 18.8331 354.833 16.408 354.833 13.4164C354.833 10.4249 352.408 7.99976 349.417 7.99976C346.425 7.99976 344 10.4249 344 13.4164C344 16.408 346.425 18.8331 349.417 18.8331Z" stroke="black" stroke-width="2" stroke-linecap="round" stroke-linejoin="round"/>
<path d="M358.333 27.6664C358.333 25.3679 357.42 23.1635 355.795 21.5382C354.17 19.9128 351.965 18.9998 349.667 18.9998C347.368 18.9998 345.164 19.9128 343.539 21.5382C341.913 23.1635 341 25.3679 341 27.6664" stroke="black" stroke-width="2" stroke-linecap="round" stroke-linejoin="round"/>
<defs>
<clipPath id="clip0_329_871">
<rect width="33.3333" height="33.3333" fill="white" transform="translate(167)"/>
</clipPath>
</defs>
</svg>
