<svg width="709" height="145" viewBox="0 0 709 145" fill="none" xmlns="http://www.w3.org/2000/svg">
<path d="M153.587 108.082C153.587 123.558 140.994 136.103 125.459 136.103C109.925 136.103 97.3314 123.558 97.3314 108.082C97.3314 92.606 109.925 80.0604 125.459 80.0604C140.994 80.0604 153.587 92.606 153.587 108.082Z" fill="#FFBC99"/>
<path d="M50.8981 52.039C50.8981 66.041 39.5042 77.3918 25.4491 77.3918C11.394 77.3918 0.00012207 66.041 0.00012207 52.039C0.00012207 38.0371 11.394 26.6863 25.4491 26.6863C39.5042 26.6863 50.8981 38.0371 50.8981 52.039Z" fill="#AAEEC5"/>
<path d="M118.762 20.9039C118.762 32.4494 109.367 41.8088 97.7778 41.8088C86.1885 41.8088 76.7936 32.4494 76.7936 20.9039C76.7936 9.35847 86.1885 -0.000976562 97.7778 -0.000976562C109.367 -0.000976562 118.762 9.35847 118.762 20.9039Z" fill="#31B280"/>
<path d="M183.054 51.5941C183.054 60.9287 175.658 68.496 166.535 68.496C157.411 68.496 150.015 60.9287 150.015 51.5941C150.015 42.2595 157.411 34.6923 166.535 34.6923C175.658 34.6923 183.054 42.2595 183.054 51.5941Z" fill="#E2D4F4"/>
<path d="M234.845 36.9162C234.845 21.4404 247.438 8.89473 262.973 8.89473C278.508 8.89473 291.101 21.4404 291.101 36.9162C291.101 52.392 278.508 64.9377 262.973 64.9377C247.438 64.9377 234.845 52.392 234.845 36.9162Z" fill="#FFBC99"/>
<path d="M338.427 92.959C338.427 78.9571 349.621 67.6062 363.43 67.6062C377.238 67.6062 388.432 78.9571 388.432 92.959C388.432 106.961 377.238 118.312 363.43 118.312C349.621 118.312 338.427 106.961 338.427 92.959Z" fill="#AAEEC5"/>
<path d="M269.67 124.094C269.67 112.549 279.065 103.189 290.654 103.189C302.244 103.189 311.639 112.549 311.639 124.094C311.639 135.64 302.244 144.999 290.654 144.999C279.065 144.999 269.67 135.64 269.67 124.094Z" fill="#31B280"/>
<path d="M205.378 93.4039C205.378 84.0693 212.974 76.5021 222.344 76.5021C231.714 76.5021 239.31 84.0693 239.31 93.4039C239.31 102.739 231.714 110.306 222.344 110.306C212.974 110.306 205.378 102.739 205.378 93.4039Z" fill="#E2D4F4"/>
<path d="M444.688 108.082C444.688 123.558 457.281 136.103 472.816 136.103C488.35 136.103 500.943 123.558 500.943 108.082C500.943 92.606 488.35 80.0604 472.816 80.0604C457.281 80.0604 444.688 92.606 444.688 108.082Z" fill="#FFBC99"/>
<path d="M547.377 52.039C547.377 66.041 558.771 77.3918 572.826 77.3918C586.881 77.3918 598.275 66.041 598.275 52.039C598.275 38.0371 586.881 26.6863 572.826 26.6863C558.771 26.6863 547.377 38.0371 547.377 52.039Z" fill="#AAEEC5"/>
<path d="M415.221 51.5941C415.221 60.9287 422.617 68.496 431.74 68.496C440.863 68.496 448.26 60.9287 448.26 51.5941C448.26 42.2595 440.863 34.6923 431.74 34.6923C422.617 34.6923 415.221 42.2595 415.221 51.5941Z" fill="#E2D4F4"/>
<path d="M530.411 120.091C530.411 129.426 537.807 136.993 546.93 136.993C556.054 136.993 563.45 129.426 563.45 120.091C563.45 110.756 556.054 103.189 546.93 103.189C537.807 103.189 530.411 110.756 530.411 120.091Z" fill="#E2D4F4"/>
<path d="M479.513 20.9039C479.513 32.4494 488.908 41.8088 500.497 41.8088C512.086 41.8088 521.481 32.4494 521.481 20.9039C521.481 9.35847 512.086 -0.000976562 500.497 -0.000976562C488.908 -0.000976562 479.513 9.35847 479.513 20.9039Z" fill="#31B280"/>
<path d="M658.102 77.8363C658.102 63.8344 669.496 52.4835 683.551 52.4835C697.606 52.4835 709 63.8344 709 77.8363C709 91.8382 697.606 103.189 683.551 103.189C669.496 103.189 658.102 91.8382 658.102 77.8363Z" fill="#AAEEC5"/>
<path d="M593.81 115.198C593.81 103.653 603.205 94.2935 614.794 94.2935C626.383 94.2935 635.778 103.653 635.778 115.198C635.778 126.744 626.383 136.103 614.794 136.103C603.205 136.103 593.81 126.744 593.81 115.198Z" fill="#31B280"/>
</svg>
